<?xml version="1.0" encoding="utf-8"?>
<!-- Generator: Adobe Illustrator 21.0.0, SVG Export Plug-In . SVG Version: 6.00 Build 0)  -->
<svg version="1.1" id="Layer_1" xmlns="http://www.w3.org/2000/svg" xmlns:xlink="http://www.w3.org/1999/xlink" x="0px" y="0px"
	 viewBox="0 0 299.5 340.1" style="enable-background:new 0 0 299.5 340.1;" xml:space="preserve">
<style type="text/css">
	.st0{fill:#666666;stroke:#000000;stroke-width:11;stroke-miterlimit:10;}
	.st1{fill:none;stroke:#000000;stroke-miterlimit:10;}
	.st2{fill:#FFFFFF;stroke:#FFFFFF;stroke-miterlimit:10;}
	.st3{fill:#FFFFFF;stroke:#000000;stroke-miterlimit:10;}
	.st4{fill:#FFFFFF;}
</style>
<title>home</title>
<polygon class="st0" points="149.8,6.3 294,88.2 294,251.9 149.8,333.7 5.5,251.9 5.5,88.2 "/>
<line class="st1" x1="79.6" y1="127.5" x2="79.6" y2="232.9"/>
<rect x="80.9" y="229.5" class="st2" width="24.2" height="6.8"/>
<polyline class="st3" points="166.9,232.9 166.9,79.8 106.5,122.7 106.5,151.4 166.9,108.5 "/>
<line class="st1" x1="140.1" y1="127.5" x2="140.1" y2="232.9"/>
<rect x="140.7" y="106.9" class="st4" width="25.5" height="60.3"/>
<rect x="141.4" y="229.5" class="st2" width="24.2" height="6.8"/>
<polyline class="st3" points="227.3,232.9 227.3,79.8 166.9,122.7 166.9,151.4 227.3,108.5 "/>
<line class="st1" x1="200.3" y1="127.5" x2="200.3" y2="232.9"/>
<rect x="200.9" y="106.9" class="st4" width="25.5" height="60.3"/>
<rect x="201.6" y="229.5" class="st2" width="24.2" height="6.8"/>
<polyline class="st3" points="106.4,232.9 106.4,79.8 46,122.7 46,151.4 106.4,108.5 "/>
<rect x="42.8" y="232.9" class="st3" width="223.5" height="19.8"/>
<rect x="80.2" y="106.9" class="st4" width="25.5" height="60.3"/>
<rect x="80.2" y="165.3" class="st4" width="25.5" height="86.1"/>
<rect x="140.7" y="163.6" class="st4" width="25.5" height="87.7"/>
<rect x="200.9" y="156.4" class="st4" width="25.9" height="93.8"/>
</svg>
